<svg width="23.892395" height="24.000000" viewBox="0 0 23.8924 24" fill="none" xmlns="http://www.w3.org/2000/svg" xmlns:xlink="http://www.w3.org/1999/xlink">
	<desc>
			Created with Pixso.
	</desc>
	<defs>
		<filter id="filter_190_1614_dd" x="0.000000" y="0.000000" width="23.892395" height="24.000000" filterUnits="userSpaceOnUse" color-interpolation-filters="sRGB">
			<feFlood flood-opacity="0" result="BackgroundImageFix"/>
			<feColorMatrix in="SourceAlpha" type="matrix" values="0 0 0 0 0 0 0 0 0 0 0 0 0 0 0 0 0 0 127 0" result="hardAlpha"/>
			<feOffset dx="0" dy="4"/>
			<feGaussianBlur stdDeviation="1.33333"/>
			<feComposite in2="hardAlpha" operator="out" k2="-1" k3="1"/>
			<feColorMatrix type="matrix" values="0 0 0 0 0 0 0 0 0 0 0 0 0 0 0 0 0 0 0.25 0"/>
			<feBlend mode="normal" in2="BackgroundImageFix" result="effect_dropShadow_1"/>
			<feBlend mode="normal" in="SourceGraphic" in2="effect_dropShadow_1" result="shape"/>
		</filter>
		<clipPath id="clip190_1614">
			<rect id="twitter-brands 1" width="15.892374" height="16.000000" transform="translate(4.000000 0.000000)" fill="white" fill-opacity="0"/>
		</clipPath>
	</defs>
	<g filter="url(#filter_190_1614_dd)">
		<rect id="twitter-brands 1" width="15.892374" height="16.000000" transform="translate(4.000000 0.000000)" fill="#FFFFFF" fill-opacity="0"/>
		<g clip-path="url(#clip190_1614)">
			<path id="Vector" d="M18.25 4.74C18.26 4.88 18.26 5.02 18.26 5.16C18.26 9.5 14.99 14.49 9 14.49C7.15 14.49 5.44 13.95 4 13.02C4.26 13.05 4.51 13.06 4.78 13.06C6.3 13.06 7.71 12.54 8.83 11.66C7.39 11.63 6.19 10.69 5.78 9.39C5.98 9.42 6.18 9.44 6.4 9.44C6.69 9.44 6.98 9.4 7.25 9.32C5.76 9.02 4.64 7.7 4.64 6.11L4.64 6.07C5.07 6.31 5.58 6.46 6.11 6.48C5.24 5.89 4.66 4.89 4.66 3.75C4.66 3.14 4.82 2.58 5.1 2.1C6.71 4.09 9.12 5.39 11.82 5.53C11.77 5.28 11.74 5.03 11.74 4.78C11.74 2.97 13.19 1.5 15 1.5C15.93 1.5 16.78 1.89 17.38 2.53C18.11 2.39 18.82 2.12 19.44 1.74C19.2 2.5 18.69 3.14 18.01 3.55C18.67 3.48 19.3 3.29 19.89 3.04C19.44 3.69 18.89 4.27 18.25 4.74Z" fill="#000000" fill-opacity="1.000000" fill-rule="nonzero"/>
		</g>
	</g>
</svg>
